#N canvas 384 333 509 611 10;
#X obj 1 169 osc~ 440;
#X obj 41 220 tgl 15 0 empty empty empty 17 7 0 10 -262144 -1 -1 0
1;
#X obj 122 62 loadbang;
#X obj 43 120 snapshot~;
#X obj 138 38 bng 15 250 50 0 empty empty empty 17 7 0 10 -262144 -1
-1;
#X obj 127 116 bng 15 100 50 0 empty empty empty 17 7 0 10 -262144
-1 -1;
#X obj 174 200 ftom;
#X obj 177 248 mtof;
#X obj 174 157 abs;
#X obj 175 177 * 250;
#X obj 194 376 vline~;
#X obj -2 451 dac~;
#X obj 121 95 metro 250;
#X msg 156 37 stop;
#X obj 2 422 *~ 0.7;
#X floatatom 230 306 5 0 0 0 - - -, f 5;
#X obj 194 328 * 0.7;
#X floatatom 219 193 5 0 0 0 - - -, f 5;
#X obj 2 251 *~ 0.7;
#X msg 194 354 \$1 23;
#X obj 1 221 *~ 1;
#X obj 1 322 hip~ 5;
#X obj 2 347 /~ 2;
#X obj 14 290 delread~ \$0_dl 400;
#X obj 35 376 *~ 0.8;
#X obj 292 284 select 220;
#X obj 302 304 bng 15 250 50 0 empty empty empty 17 7 0 10 -262144
-1 -1;
#X obj 321 334 + 1;
#X obj 289 335 f;
#X floatatom 306 357 5 0 0 0 - - -, f 5;
#X obj 285 376 % 5;
#X floatatom 296 406 5 0 0 0 - - -, f 5;
#X obj 285 426 select 1;
#X obj 269 451 bng 15 250 50 0 empty empty empty 17 7 0 10 -262144
-1 -1;
#X obj 200 279 t f f;
#X obj 36 399 delwrite~ \$0_dl 60000;
#X msg 281 530 1550 \$1;
#X obj 302 460 random 550;
#X obj 301 487 + 150;
#N canvas 1212 189 352 530 round 0;
#X obj 48 142 int;
#X obj 16 245 moses 0.5;
#X obj 15 207 -;
#X obj 24 115 t f f f;
#X obj 107 79 moses 0;
#X obj 24 44 t f f;
#X obj 24 80 abs;
#X obj 256 412 *;
#X obj 122 338 f;
#X obj 161 337 f;
#X obj 179 307 + 1;
#X obj 48 176 t f f f;
#X msg 16 276 bang;
#X msg 79 275 bang;
#X msg 158 107 1;
#X msg 107 107 -1;
#X obj 257 438 outlet;
#X obj 24 12 inlet;
#X text 85 22 rounds a float to a whole number;
#X connect 0 0 11 0;
#X connect 1 0 12 0;
#X connect 1 1 13 0;
#X connect 2 0 1 0;
#X connect 3 0 2 0;
#X connect 3 1 0 0;
#X connect 4 0 15 0;
#X connect 4 1 14 0;
#X connect 5 0 6 0;
#X connect 5 1 4 0;
#X connect 6 0 3 0;
#X connect 7 0 16 0;
#X connect 8 0 7 0;
#X connect 9 0 7 0;
#X connect 10 0 9 1;
#X connect 11 0 2 1;
#X connect 11 1 8 1;
#X connect 11 2 10 0;
#X connect 12 0 8 0;
#X connect 13 0 9 0;
#X connect 14 0 7 1;
#X connect 15 0 7 1;
#X connect 17 0 5 0;
#X restore 174 222 pd round;
#X text 254 80 jason@noisybox.net;
#X text 250 59 generative ambience;
#X connect 0 0 3 0;
#X connect 0 0 20 0;
#X connect 1 0 20 1;
#X connect 2 0 12 0;
#X connect 3 0 8 0;
#X connect 4 0 12 0;
#X connect 6 0 39 0;
#X connect 7 0 25 0;
#X connect 7 0 34 0;
#X connect 8 0 9 0;
#X connect 9 0 6 0;
#X connect 9 0 17 0;
#X connect 9 0 12 1;
#X connect 10 0 0 0;
#X connect 12 0 3 0;
#X connect 12 0 5 0;
#X connect 13 0 12 0;
#X connect 14 0 11 0;
#X connect 14 0 11 1;
#X connect 16 0 19 0;
#X connect 18 0 21 0;
#X connect 19 0 10 0;
#X connect 20 0 18 0;
#X connect 21 0 22 0;
#X connect 21 0 24 0;
#X connect 22 0 14 0;
#X connect 23 0 21 0;
#X connect 24 0 35 0;
#X connect 25 0 26 0;
#X connect 25 0 28 0;
#X connect 27 0 28 1;
#X connect 28 0 27 0;
#X connect 28 0 29 0;
#X connect 28 0 30 0;
#X connect 30 0 31 0;
#X connect 30 0 32 0;
#X connect 32 0 33 0;
#X connect 32 0 37 0;
#X connect 34 0 25 0;
#X connect 34 0 15 0;
#X connect 34 1 16 0;
#X connect 36 0 10 0;
#X connect 37 0 38 0;
#X connect 38 0 36 0;
#X connect 39 0 7 0;
