#N canvas 26 120 658 414 10;
#X obj 51 110 noise~;
#X obj 83 169 *~;
#X obj 138 133 vline~;
#X msg 138 96 1 2 \, 0 2 2;
#X obj 379 297 dac~;
#X obj 83 289 delwrite~ string1 100;
#X obj 380 65 hsl 128 15 0 127 0 0 empty empty empty -2 -8 0 10 -262144
-1 -1 2700 1;
#X obj 377 231 vd~ string1 20;
#X obj 377 94 mtof;
#X msg 377 121 1000 \$1;
#X obj 377 147 /;
#X floatatom 460 118 5 0 0 0 - - -;
#X msg 377 177 \$1 50;
#X obj 377 200 line~;
#X obj 238 182 lop~ 1650;
#X obj 238 216 *~ 0.99;
#X obj 138 56 metro 100;
#X obj 138 31 tgl 15 0 empty empty empty 17 7 0 10 -262144 -1 -1 0
1;
#X msg 379 12 27;
#X msg 418 12 36;
#X msg 462 11 44;
#X obj 394 39 t b f;
#X obj 282 -43 vsl 15 128 0 127 0 0 empty empty empty 0 -9 0 10 -262144
-1 -1 1600 1;
#X obj 282 123 * 100;
#X connect 0 0 1 0;
#X connect 1 0 5 0;
#X connect 2 0 1 1;
#X connect 3 0 2 0;
#X connect 6 0 8 0;
#X connect 7 0 4 0;
#X connect 7 0 4 1;
#X connect 7 0 14 0;
#X connect 8 0 9 0;
#X connect 8 0 11 0;
#X connect 9 0 10 0;
#X connect 10 0 12 0;
#X connect 12 0 13 0;
#X connect 13 0 7 0;
#X connect 14 0 15 0;
#X connect 15 0 5 0;
#X connect 16 0 3 0;
#X connect 17 0 16 0;
#X connect 18 0 21 0;
#X connect 19 0 21 0;
#X connect 20 0 21 0;
#X connect 21 0 3 0;
#X connect 21 1 6 0;
#X connect 22 0 23 0;
#X connect 23 0 14 1;
